<?xml version="1.0" encoding="UTF-8" standalone="no"?>
<!-- Created with Inkscape (http://www.inkscape.org/) -->

<svg
   xmlns:dc="http://purl.org/dc/elements/1.1/"
   xmlns:cc="http://creativecommons.org/ns#"
   xmlns:rdf="http://www.w3.org/1999/02/22-rdf-syntax-ns#"
   xmlns:svg="http://www.w3.org/2000/svg"
   xmlns="http://www.w3.org/2000/svg"
   xmlns:sodipodi="http://sodipodi.sourceforge.net/DTD/sodipodi-0.dtd"
   xmlns:inkscape="http://www.inkscape.org/namespaces/inkscape"
   width="825.16943"
   height="404.55908"
   id="svg2"
   version="1.1"
   inkscape:version="0.48.3.1 r9886"
   sodipodi:docname="one2all.svg"
   inkscape:export-filename="/home/vitay/Research/ANNarchy3/docannarchy-3.0/src/_static/one2all.png"
   inkscape:export-xdpi="90"
   inkscape:export-ydpi="90">
  <defs
     id="defs4">
    <marker
       inkscape:stockid="Arrow1Send"
       orient="auto"
       refY="0"
       refX="0"
       id="Arrow1Send"
       style="overflow:visible">
      <path
         id="path3874"
         d="M 0,0 5,-5 -12.5,0 5,5 0,0 z"
         style="fill-rule:evenodd;stroke:#000000;stroke-width:1pt"
         transform="matrix(-0.2,0,0,-0.2,-1.2,0)"
         inkscape:connector-curvature="0" />
    </marker>
    <marker
       inkscape:stockid="Arrow1Mend"
       orient="auto"
       refY="0"
       refX="0"
       id="Arrow1Mend"
       style="overflow:visible">
      <path
         id="path3868"
         d="M 0,0 5,-5 -12.5,0 5,5 0,0 z"
         style="fill-rule:evenodd;stroke:#000000;stroke-width:1pt"
         transform="matrix(-0.4,0,0,-0.4,-4,0)"
         inkscape:connector-curvature="0" />
    </marker>
    <marker
       inkscape:stockid="Arrow1Mend"
       orient="auto"
       refY="0"
       refX="0"
       id="Arrow1Mend-7"
       style="overflow:visible">
      <path
         inkscape:connector-curvature="0"
         id="path3868-5"
         d="M 0,0 5,-5 -12.5,0 5,5 0,0 z"
         style="fill-rule:evenodd;stroke:#000000;stroke-width:1pt"
         transform="matrix(-0.4,0,0,-0.4,-4,0)" />
    </marker>
    <marker
       inkscape:stockid="Arrow1Mend"
       orient="auto"
       refY="0"
       refX="0"
       id="Arrow1Mend-8"
       style="overflow:visible">
      <path
         inkscape:connector-curvature="0"
         id="path3868-0"
         d="M 0,0 5,-5 -12.5,0 5,5 0,0 z"
         style="fill-rule:evenodd;stroke:#000000;stroke-width:1pt"
         transform="matrix(-0.4,0,0,-0.4,-4,0)" />
    </marker>
    <marker
       inkscape:stockid="Arrow1Mend"
       orient="auto"
       refY="0"
       refX="0"
       id="Arrow1Mend-5"
       style="overflow:visible">
      <path
         inkscape:connector-curvature="0"
         id="path3868-08"
         d="M 0,0 5,-5 -12.5,0 5,5 0,0 z"
         style="fill-rule:evenodd;stroke:#000000;stroke-width:1pt"
         transform="matrix(-0.4,0,0,-0.4,-4,0)" />
    </marker>
    <marker
       inkscape:stockid="Arrow1Mend"
       orient="auto"
       refY="0"
       refX="0"
       id="Arrow1Mend-1"
       style="overflow:visible">
      <path
         inkscape:connector-curvature="0"
         id="path3868-7"
         d="M 0,0 5,-5 -12.5,0 5,5 0,0 z"
         style="fill-rule:evenodd;stroke:#000000;stroke-width:1pt"
         transform="matrix(-0.4,0,0,-0.4,-4,0)" />
    </marker>
    <marker
       inkscape:stockid="Arrow1Mend"
       orient="auto"
       refY="0"
       refX="0"
       id="Arrow1Mend-53"
       style="overflow:visible">
      <path
         inkscape:connector-curvature="0"
         id="path3868-03"
         d="M 0,0 5,-5 -12.5,0 5,5 0,0 z"
         style="fill-rule:evenodd;stroke:#000000;stroke-width:1pt"
         transform="matrix(-0.4,0,0,-0.4,-4,0)" />
    </marker>
    <marker
       inkscape:stockid="Arrow1Mend"
       orient="auto"
       refY="0"
       refX="0"
       id="Arrow1Mend-0"
       style="overflow:visible">
      <path
         inkscape:connector-curvature="0"
         id="path3868-09"
         d="M 0,0 5,-5 -12.5,0 5,5 0,0 z"
         style="fill-rule:evenodd;stroke:#000000;stroke-width:1pt"
         transform="matrix(-0.4,0,0,-0.4,-4,0)" />
    </marker>
    <marker
       inkscape:stockid="Arrow1Mend"
       orient="auto"
       refY="0"
       refX="0"
       id="Arrow1Mend-89"
       style="overflow:visible">
      <path
         inkscape:connector-curvature="0"
         id="path3868-093"
         d="M 0,0 5,-5 -12.5,0 5,5 0,0 z"
         style="fill-rule:evenodd;stroke:#000000;stroke-width:1pt"
         transform="matrix(-0.4,0,0,-0.4,-4,0)" />
    </marker>
    <marker
       inkscape:stockid="Arrow1Mend"
       orient="auto"
       refY="0"
       refX="0"
       id="Arrow1Mend-05"
       style="overflow:visible">
      <path
         inkscape:connector-curvature="0"
         id="path3868-8"
         d="M 0,0 5,-5 -12.5,0 5,5 0,0 z"
         style="fill-rule:evenodd;stroke:#000000;stroke-width:1pt"
         transform="matrix(-0.4,0,0,-0.4,-4,0)" />
    </marker>
    <marker
       inkscape:stockid="Arrow1Mend"
       orient="auto"
       refY="0"
       refX="0"
       id="Arrow1Mend-13"
       style="overflow:visible">
      <path
         inkscape:connector-curvature="0"
         id="path3868-50"
         d="M 0,0 5,-5 -12.5,0 5,5 0,0 z"
         style="fill-rule:evenodd;stroke:#000000;stroke-width:1pt"
         transform="matrix(-0.4,0,0,-0.4,-4,0)" />
    </marker>
    <marker
       inkscape:stockid="Arrow1Mend"
       orient="auto"
       refY="0"
       refX="0"
       id="Arrow1Mend-3"
       style="overflow:visible">
      <path
         inkscape:connector-curvature="0"
         id="path3868-9"
         d="M 0,0 5,-5 -12.5,0 5,5 0,0 z"
         style="fill-rule:evenodd;stroke:#000000;stroke-width:1pt"
         transform="matrix(-0.4,0,0,-0.4,-4,0)" />
    </marker>
    <marker
       inkscape:stockid="Arrow1Mend"
       orient="auto"
       refY="0"
       refX="0"
       id="Arrow1Mend-10"
       style="overflow:visible">
      <path
         inkscape:connector-curvature="0"
         id="path3868-84"
         d="M 0,0 5,-5 -12.5,0 5,5 0,0 z"
         style="fill-rule:evenodd;stroke:#000000;stroke-width:1pt"
         transform="matrix(-0.4,0,0,-0.4,-4,0)" />
    </marker>
    <marker
       inkscape:stockid="Arrow1Mend"
       orient="auto"
       refY="0"
       refX="0"
       id="Arrow1Mend-4"
       style="overflow:visible">
      <path
         inkscape:connector-curvature="0"
         id="path3868-07"
         d="M 0,0 5,-5 -12.5,0 5,5 0,0 z"
         style="fill-rule:evenodd;stroke:#000000;stroke-width:1pt"
         transform="matrix(-0.4,0,0,-0.4,-4,0)" />
    </marker>
    <marker
       inkscape:stockid="Arrow1Mend"
       orient="auto"
       refY="0"
       refX="0"
       id="Arrow1Mend-04"
       style="overflow:visible">
      <path
         inkscape:connector-curvature="0"
         id="path3868-2"
         d="M 0,0 5,-5 -12.5,0 5,5 0,0 z"
         style="fill-rule:evenodd;stroke:#000000;stroke-width:1pt"
         transform="matrix(-0.4,0,0,-0.4,-4,0)" />
    </marker>
    <marker
       inkscape:stockid="Arrow1Mend"
       orient="auto"
       refY="0"
       refX="0"
       id="Arrow1Mend-30"
       style="overflow:visible">
      <path
         inkscape:connector-curvature="0"
         id="path3868-57"
         d="M 0,0 5,-5 -12.5,0 5,5 0,0 z"
         style="fill-rule:evenodd;stroke:#000000;stroke-width:1pt"
         transform="matrix(-0.4,0,0,-0.4,-4,0)" />
    </marker>
    <marker
       inkscape:stockid="Arrow1Mend"
       orient="auto"
       refY="0"
       refX="0"
       id="Arrow1Mend-6"
       style="overflow:visible">
      <path
         inkscape:connector-curvature="0"
         id="path3868-21"
         d="M 0,0 5,-5 -12.5,0 5,5 0,0 z"
         style="fill-rule:evenodd;stroke:#000000;stroke-width:1pt"
         transform="matrix(-0.4,0,0,-0.4,-4,0)" />
    </marker>
    <marker
       inkscape:stockid="Arrow1Mend"
       orient="auto"
       refY="0"
       refX="0"
       id="Arrow1Mend-01"
       style="overflow:visible">
      <path
         inkscape:connector-curvature="0"
         id="path3868-89"
         d="M 0,0 5,-5 -12.5,0 5,5 0,0 z"
         style="fill-rule:evenodd;stroke:#000000;stroke-width:1pt"
         transform="matrix(-0.4,0,0,-0.4,-4,0)" />
    </marker>
    <marker
       inkscape:stockid="Arrow1Mend"
       orient="auto"
       refY="0"
       refX="0"
       id="Arrow1Mend-15"
       style="overflow:visible">
      <path
         inkscape:connector-curvature="0"
         id="path3868-6"
         d="M 0,0 5,-5 -12.5,0 5,5 0,0 z"
         style="fill-rule:evenodd;stroke:#000000;stroke-width:1pt"
         transform="matrix(-0.4,0,0,-0.4,-4,0)" />
    </marker>
    <marker
       inkscape:stockid="Arrow1Mend"
       orient="auto"
       refY="0"
       refX="0"
       id="Arrow1Mend-19"
       style="overflow:visible">
      <path
         inkscape:connector-curvature="0"
         id="path3868-25"
         d="M 0,0 5,-5 -12.5,0 5,5 0,0 z"
         style="fill-rule:evenodd;stroke:#000000;stroke-width:1pt"
         transform="matrix(-0.4,0,0,-0.4,-4,0)" />
    </marker>
    <marker
       inkscape:stockid="Arrow1Send"
       orient="auto"
       refY="0"
       refX="0"
       id="Arrow1Send-9"
       style="overflow:visible">
      <path
         inkscape:connector-curvature="0"
         id="path3874-9"
         d="M 0,0 5,-5 -12.5,0 5,5 0,0 z"
         style="fill-rule:evenodd;stroke:#000000;stroke-width:1pt"
         transform="matrix(-0.2,0,0,-0.2,-1.2,0)" />
    </marker>
    <marker
       inkscape:stockid="Arrow1Send"
       orient="auto"
       refY="0"
       refX="0"
       id="marker4776"
       style="overflow:visible">
      <path
         inkscape:connector-curvature="0"
         id="path4778"
         d="M 0,0 5,-5 -12.5,0 5,5 0,0 z"
         style="fill-rule:evenodd;stroke:#000000;stroke-width:1pt"
         transform="matrix(-0.2,0,0,-0.2,-1.2,0)" />
    </marker>
    <marker
       inkscape:stockid="Arrow1Send"
       orient="auto"
       refY="0"
       refX="0"
       id="marker4780"
       style="overflow:visible">
      <path
         inkscape:connector-curvature="0"
         id="path4782"
         d="M 0,0 5,-5 -12.5,0 5,5 0,0 z"
         style="fill-rule:evenodd;stroke:#000000;stroke-width:1pt"
         transform="matrix(-0.2,0,0,-0.2,-1.2,0)" />
    </marker>
    <marker
       inkscape:stockid="Arrow1Send"
       orient="auto"
       refY="0"
       refX="0"
       id="marker4784"
       style="overflow:visible">
      <path
         inkscape:connector-curvature="0"
         id="path4786"
         d="M 0,0 5,-5 -12.5,0 5,5 0,0 z"
         style="fill-rule:evenodd;stroke:#000000;stroke-width:1pt"
         transform="matrix(-0.2,0,0,-0.2,-1.2,0)" />
    </marker>
    <marker
       inkscape:stockid="Arrow1Send"
       orient="auto"
       refY="0"
       refX="0"
       id="marker4788"
       style="overflow:visible">
      <path
         inkscape:connector-curvature="0"
         id="path4790"
         d="M 0,0 5,-5 -12.5,0 5,5 0,0 z"
         style="fill-rule:evenodd;stroke:#000000;stroke-width:1pt"
         transform="matrix(-0.2,0,0,-0.2,-1.2,0)" />
    </marker>
    <marker
       inkscape:stockid="Arrow1Send"
       orient="auto"
       refY="0"
       refX="0"
       id="marker4792"
       style="overflow:visible">
      <path
         inkscape:connector-curvature="0"
         id="path4794"
         d="M 0,0 5,-5 -12.5,0 5,5 0,0 z"
         style="fill-rule:evenodd;stroke:#000000;stroke-width:1pt"
         transform="matrix(-0.2,0,0,-0.2,-1.2,0)" />
    </marker>
    <marker
       inkscape:stockid="Arrow1Send"
       orient="auto"
       refY="0"
       refX="0"
       id="marker4796"
       style="overflow:visible">
      <path
         inkscape:connector-curvature="0"
         id="path4798"
         d="M 0,0 5,-5 -12.5,0 5,5 0,0 z"
         style="fill-rule:evenodd;stroke:#000000;stroke-width:1pt"
         transform="matrix(-0.2,0,0,-0.2,-1.2,0)" />
    </marker>
    <marker
       inkscape:stockid="Arrow1Send"
       orient="auto"
       refY="0"
       refX="0"
       id="marker4800"
       style="overflow:visible">
      <path
         inkscape:connector-curvature="0"
         id="path4802"
         d="M 0,0 5,-5 -12.5,0 5,5 0,0 z"
         style="fill-rule:evenodd;stroke:#000000;stroke-width:1pt"
         transform="matrix(-0.2,0,0,-0.2,-1.2,0)" />
    </marker>
    <marker
       inkscape:stockid="Arrow1Send"
       orient="auto"
       refY="0"
       refX="0"
       id="marker4804"
       style="overflow:visible">
      <path
         inkscape:connector-curvature="0"
         id="path4806"
         d="M 0,0 5,-5 -12.5,0 5,5 0,0 z"
         style="fill-rule:evenodd;stroke:#000000;stroke-width:1pt"
         transform="matrix(-0.2,0,0,-0.2,-1.2,0)" />
    </marker>
    <marker
       inkscape:stockid="Arrow1Send"
       orient="auto"
       refY="0"
       refX="0"
       id="marker4808"
       style="overflow:visible">
      <path
         inkscape:connector-curvature="0"
         id="path4810"
         d="M 0,0 5,-5 -12.5,0 5,5 0,0 z"
         style="fill-rule:evenodd;stroke:#000000;stroke-width:1pt"
         transform="matrix(-0.2,0,0,-0.2,-1.2,0)" />
    </marker>
    <marker
       inkscape:stockid="Arrow1Send"
       orient="auto"
       refY="0"
       refX="0"
       id="marker4812"
       style="overflow:visible">
      <path
         inkscape:connector-curvature="0"
         id="path4814"
         d="M 0,0 5,-5 -12.5,0 5,5 0,0 z"
         style="fill-rule:evenodd;stroke:#000000;stroke-width:1pt"
         transform="matrix(-0.2,0,0,-0.2,-1.2,0)" />
    </marker>
    <marker
       inkscape:stockid="Arrow1Send"
       orient="auto"
       refY="0"
       refX="0"
       id="marker4816"
       style="overflow:visible">
      <path
         inkscape:connector-curvature="0"
         id="path4818"
         d="M 0,0 5,-5 -12.5,0 5,5 0,0 z"
         style="fill-rule:evenodd;stroke:#000000;stroke-width:1pt"
         transform="matrix(-0.2,0,0,-0.2,-1.2,0)" />
    </marker>
    <marker
       inkscape:stockid="Arrow1Send"
       orient="auto"
       refY="0"
       refX="0"
       id="marker4820"
       style="overflow:visible">
      <path
         inkscape:connector-curvature="0"
         id="path4822"
         d="M 0,0 5,-5 -12.5,0 5,5 0,0 z"
         style="fill-rule:evenodd;stroke:#000000;stroke-width:1pt"
         transform="matrix(-0.2,0,0,-0.2,-1.2,0)" />
    </marker>
    <marker
       inkscape:stockid="Arrow1Send"
       orient="auto"
       refY="0"
       refX="0"
       id="marker4824"
       style="overflow:visible">
      <path
         inkscape:connector-curvature="0"
         id="path4826"
         d="M 0,0 5,-5 -12.5,0 5,5 0,0 z"
         style="fill-rule:evenodd;stroke:#000000;stroke-width:1pt"
         transform="matrix(-0.2,0,0,-0.2,-1.2,0)" />
    </marker>
    <marker
       inkscape:stockid="Arrow1Send"
       orient="auto"
       refY="0"
       refX="0"
       id="marker4828"
       style="overflow:visible">
      <path
         inkscape:connector-curvature="0"
         id="path4830"
         d="M 0,0 5,-5 -12.5,0 5,5 0,0 z"
         style="fill-rule:evenodd;stroke:#000000;stroke-width:1pt"
         transform="matrix(-0.2,0,0,-0.2,-1.2,0)" />
    </marker>
    <marker
       inkscape:stockid="Arrow1Send"
       orient="auto"
       refY="0"
       refX="0"
       id="marker4832"
       style="overflow:visible">
      <path
         inkscape:connector-curvature="0"
         id="path4834"
         d="M 0,0 5,-5 -12.5,0 5,5 0,0 z"
         style="fill-rule:evenodd;stroke:#000000;stroke-width:1pt"
         transform="matrix(-0.2,0,0,-0.2,-1.2,0)" />
    </marker>
  </defs>
  <sodipodi:namedview
     id="base"
     pagecolor="#ffffff"
     bordercolor="#666666"
     borderopacity="1.0"
     inkscape:pageopacity="0.0"
     inkscape:pageshadow="2"
     inkscape:zoom="0.98994949"
     inkscape:cx="403.10145"
     inkscape:cy="199.27307"
     inkscape:document-units="px"
     inkscape:current-layer="layer1"
     showgrid="false"
     inkscape:window-width="1366"
     inkscape:window-height="741"
     inkscape:window-x="-6"
     inkscape:window-y="-2"
     inkscape:window-maximized="1"
     fit-margin-top="0"
     fit-margin-left="0"
     fit-margin-right="0"
     fit-margin-bottom="0" />
  <metadata
     id="metadata7">
    <rdf:RDF>
      <cc:Work
         rdf:about="">
        <dc:format>image/svg+xml</dc:format>
        <dc:type
           rdf:resource="http://purl.org/dc/dcmitype/StillImage" />
        <dc:title />
      </cc:Work>
    </rdf:RDF>
  </metadata>
  <g
     inkscape:label="Layer 1"
     inkscape:groupmode="layer"
     id="layer1"
     transform="translate(-35.538158,-327.07617)">
    <path
       sodipodi:type="arc"
       style="fill:none;stroke:#000000;stroke-width:5.5;stroke-linejoin:round;stroke-miterlimit:4;stroke-opacity:1;stroke-dasharray:none;stroke-dashoffset:0"
       id="path3753"
       sodipodi:cx="105.05586"
       sodipodi:cy="83.959793"
       sodipodi:rx="33.335033"
       sodipodi:ry="33.840111"
       d="m 138.3909,83.959793 c 0,18.689377 -14.92461,33.840107 -33.33504,33.840107 -18.410428,0 -33.335031,-15.15073 -33.335031,-33.840107 0,-18.689377 14.924603,-33.840111 33.335031,-33.840111 18.41043,0 33.33504,15.150734 33.33504,33.840111 z"
       transform="translate(3.0304576,322.40984)" />
    <path
       transform="translate(1.0101544,402.71697)"
       sodipodi:type="arc"
       style="fill:none;stroke:#000000;stroke-width:5.5;stroke-linejoin:round;stroke-miterlimit:4;stroke-opacity:1;stroke-dasharray:none;stroke-dashoffset:0"
       id="path3753-0"
       sodipodi:cx="105.05586"
       sodipodi:cy="83.959793"
       sodipodi:rx="33.335033"
       sodipodi:ry="33.840111"
       d="m 138.3909,83.959793 c 0,18.689377 -14.92461,33.840107 -33.33504,33.840107 -18.410428,0 -33.335031,-15.15073 -33.335031,-33.840107 0,-18.689377 14.924603,-33.840111 33.335031,-33.840111 18.41043,0 33.33504,15.150734 33.33504,33.840111 z" />
    <path
       transform="translate(1.0101544,487.56977)"
       sodipodi:type="arc"
       style="fill:none;stroke:#000000;stroke-width:5.5;stroke-linejoin:round;stroke-miterlimit:4;stroke-opacity:1;stroke-dasharray:none;stroke-dashoffset:0"
       id="path3753-9"
       sodipodi:cx="105.05586"
       sodipodi:cy="83.959793"
       sodipodi:rx="33.335033"
       sodipodi:ry="33.840111"
       d="m 138.3909,83.959793 c 0,18.689377 -14.92461,33.840107 -33.33504,33.840107 -18.410428,0 -33.335031,-15.15073 -33.335031,-33.840107 0,-18.689377 14.924603,-33.840111 33.335031,-33.840111 18.41043,0 33.33504,15.150734 33.33504,33.840111 z" />
    <path
       transform="translate(1.0101549,570.40229)"
       sodipodi:type="arc"
       style="fill:none;stroke:#000000;stroke-width:5.5;stroke-linejoin:round;stroke-miterlimit:4;stroke-opacity:1;stroke-dasharray:none;stroke-dashoffset:0"
       id="path3753-9-0"
       sodipodi:cx="105.05586"
       sodipodi:cy="83.959793"
       sodipodi:rx="33.335033"
       sodipodi:ry="33.840111"
       d="m 138.3909,83.959793 c 0,18.689377 -14.92461,33.840107 -33.33504,33.840107 -18.410428,0 -33.335031,-15.15073 -33.335031,-33.840107 0,-18.689377 14.924603,-33.840111 33.335031,-33.840111 18.41043,0 33.33504,15.150734 33.33504,33.840111 z" />
    <path
       sodipodi:type="arc"
       style="fill:none;stroke:#000000;stroke-width:5.5;stroke-linejoin:round;stroke-miterlimit:4;stroke-opacity:1;stroke-dasharray:none;stroke-dashoffset:0"
       id="path3753-5"
       sodipodi:cx="105.05586"
       sodipodi:cy="83.959793"
       sodipodi:rx="33.335033"
       sodipodi:ry="33.840111"
       d="m 138.3909,83.959793 c 0,18.689377 -14.92461,33.840107 -33.33504,33.840107 -18.410428,0 -33.335031,-15.15073 -33.335031,-33.840107 0,-18.689377 14.924603,-33.840111 33.335031,-33.840111 18.41043,0 33.33504,15.150734 33.33504,33.840111 z"
       transform="translate(235.36554,323.16745)" />
    <path
       transform="translate(233.34524,403.47458)"
       sodipodi:type="arc"
       style="fill:none;stroke:#000000;stroke-width:5.5;stroke-linejoin:round;stroke-miterlimit:4;stroke-opacity:1;stroke-dasharray:none;stroke-dashoffset:0"
       id="path3753-0-3"
       sodipodi:cx="105.05586"
       sodipodi:cy="83.959793"
       sodipodi:rx="33.335033"
       sodipodi:ry="33.840111"
       d="m 138.3909,83.959793 c 0,18.689377 -14.92461,33.840107 -33.33504,33.840107 -18.410428,0 -33.335031,-15.15073 -33.335031,-33.840107 0,-18.689377 14.924603,-33.840111 33.335031,-33.840111 18.41043,0 33.33504,15.150734 33.33504,33.840111 z" />
    <path
       transform="translate(233.34524,488.32738)"
       sodipodi:type="arc"
       style="fill:none;stroke:#000000;stroke-width:5.5;stroke-linejoin:round;stroke-miterlimit:4;stroke-opacity:1;stroke-dasharray:none;stroke-dashoffset:0"
       id="path3753-9-5"
       sodipodi:cx="105.05586"
       sodipodi:cy="83.959793"
       sodipodi:rx="33.335033"
       sodipodi:ry="33.840111"
       d="m 138.3909,83.959793 c 0,18.689377 -14.92461,33.840107 -33.33504,33.840107 -18.410428,0 -33.335031,-15.15073 -33.335031,-33.840107 0,-18.689377 14.924603,-33.840111 33.335031,-33.840111 18.41043,0 33.33504,15.150734 33.33504,33.840111 z" />
    <path
       transform="translate(233.34524,571.1599)"
       sodipodi:type="arc"
       style="fill:none;stroke:#000000;stroke-width:5.5;stroke-linejoin:round;stroke-miterlimit:4;stroke-opacity:1;stroke-dasharray:none;stroke-dashoffset:0"
       id="path3753-9-0-41"
       sodipodi:cx="105.05586"
       sodipodi:cy="83.959793"
       sodipodi:rx="33.335033"
       sodipodi:ry="33.840111"
       d="m 138.3909,83.959793 c 0,18.689377 -14.92461,33.840107 -33.33504,33.840107 -18.410428,0 -33.335031,-15.15073 -33.335031,-33.840107 0,-18.689377 14.924603,-33.840111 33.335031,-33.840111 18.41043,0 33.33504,15.150734 33.33504,33.840111 z" />
    <path
       style="fill:none;stroke:#000000;stroke-width:4;stroke-linecap:butt;stroke-linejoin:miter;stroke-miterlimit:4;stroke-opacity:1;stroke-dasharray:none;marker-end:url(#Arrow1Send)"
       d="M 140.4112,98.607006 308.09652,80.424264"
       id="path3853"
       inkscape:connector-curvature="0"
       transform="translate(0,308.2677)"
       sodipodi:nodetypes="cc" />
    <path
       style="fill:none;stroke:#000000;stroke-width:4;stroke-linecap:butt;stroke-linejoin:miter;stroke-miterlimit:4;stroke-opacity:1;stroke-dasharray:none;marker-end:url(#Arrow1Send)"
       d="m 142.44677,407.02015 164.65487,68.69038"
       id="path3853-4"
       inkscape:connector-curvature="0"
       sodipodi:nodetypes="cc" />
    <path
       style="fill:none;stroke:#000000;stroke-width:4;stroke-linecap:butt;stroke-linejoin:miter;stroke-miterlimit:4;stroke-opacity:1;stroke-dasharray:none;marker-end:url(#Arrow1Send)"
       d="M 141.43662,408.0303 307.10164,553.49227"
       id="path3853-6"
       inkscape:connector-curvature="0"
       sodipodi:nodetypes="cc" />
    <path
       style="fill:none;stroke:#000000;stroke-width:4;stroke-linecap:butt;stroke-linejoin:miter;stroke-miterlimit:4;stroke-opacity:1;stroke-dasharray:none;marker-end:url(#Arrow1Send)"
       d="M 142.44677,408.0303 311.14225,629.25372"
       id="path3853-60"
       inkscape:connector-curvature="0"
       sodipodi:nodetypes="cc" />
    <path
       style="fill:none;stroke:#000000;stroke-width:4;stroke-linecap:butt;stroke-linejoin:miter;stroke-miterlimit:4;stroke-opacity:1;stroke-dasharray:none;marker-end:url(#Arrow1Send)"
       d="M 139.41632,483.79175 304.07118,400.95924"
       id="path3853-43"
       inkscape:connector-curvature="0"
       sodipodi:nodetypes="cc" />
    <path
       style="fill:none;stroke:#000000;stroke-width:4;stroke-linecap:butt;stroke-linejoin:miter;stroke-miterlimit:4;stroke-opacity:1;stroke-dasharray:none;marker-end:url(#Arrow1Send)"
       d="m 139.41632,483.79174 163.64471,1.01016"
       id="path3853-9"
       inkscape:connector-curvature="0"
       sodipodi:nodetypes="cc" />
    <path
       style="fill:none;stroke:#000000;stroke-width:4;stroke-linecap:butt;stroke-linejoin:miter;stroke-miterlimit:4;stroke-opacity:1;stroke-dasharray:none;marker-end:url(#Arrow1Send)"
       d="M 141.43662,483.79174 304.07118,565.6141"
       id="path3853-48"
       inkscape:connector-curvature="0"
       sodipodi:nodetypes="cc" />
    <path
       style="fill:none;stroke:#000000;stroke-width:4;stroke-linecap:butt;stroke-linejoin:miter;stroke-miterlimit:4;stroke-opacity:1;stroke-dasharray:none;marker-end:url(#Arrow1Send)"
       d="m 142.44678,484.8019 161.6244,155.5635"
       id="path3853-8"
       inkscape:connector-curvature="0"
       sodipodi:nodetypes="cc" />
    <path
       style="fill:none;stroke:#000000;stroke-width:4;stroke-linecap:butt;stroke-linejoin:miter;stroke-miterlimit:4;stroke-opacity:1;stroke-dasharray:none;marker-end:url(#Arrow1Send)"
       d="M 138.40617,573.69532 304.07119,417.12168"
       id="path3853-80"
       inkscape:connector-curvature="0"
       sodipodi:nodetypes="cc" />
    <path
       style="fill:none;stroke:#000000;stroke-width:4;stroke-linecap:butt;stroke-linejoin:miter;stroke-miterlimit:4;stroke-opacity:1;stroke-dasharray:none;marker-end:url(#Arrow1Send)"
       d="M 140.42647,573.69532 302.05088,493.89328"
       id="path3853-96"
       inkscape:connector-curvature="0"
       sodipodi:nodetypes="cc" />
    <path
       style="fill:none;stroke:#000000;stroke-width:4;stroke-linecap:butt;stroke-linejoin:miter;stroke-miterlimit:4;stroke-opacity:1;stroke-dasharray:none;marker-end:url(#Arrow1Send)"
       d="m 141.43662,573.69532 163.64471,2.02031"
       id="path3853-64"
       inkscape:connector-curvature="0"
       sodipodi:nodetypes="cc" />
    <path
       style="fill:none;stroke:#000000;stroke-width:4;stroke-linecap:butt;stroke-linejoin:miter;stroke-miterlimit:4;stroke-opacity:1;stroke-dasharray:none;marker-end:url(#Arrow1Send)"
       d="m 139.41632,572.68517 162.63456,82.83252"
       id="path3853-642"
       inkscape:connector-curvature="0"
       sodipodi:nodetypes="cc" />
    <path
       style="fill:none;stroke:#000000;stroke-width:4;stroke-linecap:butt;stroke-linejoin:miter;stroke-miterlimit:4;stroke-opacity:1;stroke-dasharray:none;marker-end:url(#Arrow1Send)"
       d="m 139.41632,655.51768 164.65486,12.12184"
       id="path3853-5"
       inkscape:connector-curvature="0"
       sodipodi:nodetypes="cc" />
    <path
       style="fill:none;stroke:#000000;stroke-width:4;stroke-linecap:butt;stroke-linejoin:miter;stroke-miterlimit:4;stroke-opacity:1;stroke-dasharray:none;marker-end:url(#Arrow1Send)"
       d="M 138.40616,654.50752 304.07118,588.84761"
       id="path3853-2"
       inkscape:connector-curvature="0"
       sodipodi:nodetypes="cc" />
    <path
       style="fill:none;stroke:#000000;stroke-width:4;stroke-linecap:butt;stroke-linejoin:miter;stroke-miterlimit:4;stroke-opacity:1;stroke-dasharray:none;marker-end:url(#Arrow1Send)"
       d="M 141.43662,653.49737 308.11179,509.04556"
       id="path3853-66"
       inkscape:connector-curvature="0"
       sodipodi:nodetypes="cc" />
    <path
       style="fill:none;stroke:#000000;stroke-width:4;stroke-linecap:butt;stroke-linejoin:miter;stroke-miterlimit:4;stroke-opacity:1;stroke-dasharray:none;marker-end:url(#Arrow1Send)"
       d="M 138.40617,653.49737 311.14225,433.28413"
       id="path3853-45"
       inkscape:connector-curvature="0"
       sodipodi:nodetypes="cc" />
    <text
       xml:space="preserve"
       style="font-size:48px;font-style:normal;font-weight:bold;line-height:125%;letter-spacing:0px;word-spacing:0px;fill:#000000;fill-opacity:1;stroke:none;font-family:Sans;-inkscape-font-specification:Sans Bold"
       x="33.335033"
       y="725.07275"
       id="text4719"
       sodipodi:linespacing="125%"><tspan
         sodipodi:role="line"
         id="tspan4721"
         x="33.335033"
         y="725.07275"
         style="font-size:24px">Population1</tspan></text>
    <text
       xml:space="preserve"
       style="font-size:48px;font-style:normal;font-weight:bold;line-height:125%;letter-spacing:0px;word-spacing:0px;fill:#000000;fill-opacity:1;stroke:none;font-family:Sans;-inkscape-font-specification:Sans Bold"
       x="236.4715"
       y="726.64307"
       id="text4719-1"
       sodipodi:linespacing="125%"><tspan
         sodipodi:role="line"
         id="tspan4721-2"
         x="236.4715"
         y="726.64307"
         style="font-size:24px">Population2</tspan></text>
    <text
       xml:space="preserve"
       style="font-size:48px;font-style:normal;font-weight:bold;line-height:125%;letter-spacing:0px;word-spacing:0px;fill:#000000;fill-opacity:1;stroke:none;font-family:Sans;-inkscape-font-specification:Sans Bold"
       x="149.59837"
       y="345.81558"
       id="text4719-9"
       sodipodi:linespacing="125%"><tspan
         sodipodi:role="line"
         id="tspan4721-8"
         x="149.59837"
         y="345.81558"
         style="font-size:24px">a) all2all</tspan></text>
    <path
       sodipodi:type="arc"
       style="fill:none;stroke:#000000;stroke-width:5.5;stroke-linejoin:round;stroke-miterlimit:4;stroke-opacity:1;stroke-dasharray:none;stroke-dashoffset:0"
       id="path3753-4"
       sodipodi:cx="105.05586"
       sodipodi:cy="83.959793"
       sodipodi:rx="33.335033"
       sodipodi:ry="33.840111"
       d="m 138.3909,83.959793 c 0,18.689377 -14.92461,33.840107 -33.33504,33.840107 -18.410428,0 -33.335031,-15.15073 -33.335031,-33.840107 0,-18.689377 14.924603,-33.840111 33.335031,-33.840111 18.41043,0 33.33504,15.150734 33.33504,33.840111 z"
       transform="translate(466.45009,321.90479)" />
    <path
       transform="translate(464.42979,402.21192)"
       sodipodi:type="arc"
       style="fill:none;stroke:#000000;stroke-width:5.5;stroke-linejoin:round;stroke-miterlimit:4;stroke-opacity:1;stroke-dasharray:none;stroke-dashoffset:0"
       id="path3753-0-1"
       sodipodi:cx="105.05586"
       sodipodi:cy="83.959793"
       sodipodi:rx="33.335033"
       sodipodi:ry="33.840111"
       d="m 138.3909,83.959793 c 0,18.689377 -14.92461,33.840107 -33.33504,33.840107 -18.410428,0 -33.335031,-15.15073 -33.335031,-33.840107 0,-18.689377 14.924603,-33.840111 33.335031,-33.840111 18.41043,0 33.33504,15.150734 33.33504,33.840111 z" />
    <path
       transform="translate(464.42979,487.06472)"
       sodipodi:type="arc"
       style="fill:none;stroke:#000000;stroke-width:5.5;stroke-linejoin:round;stroke-miterlimit:4;stroke-opacity:1;stroke-dasharray:none;stroke-dashoffset:0"
       id="path3753-9-04"
       sodipodi:cx="105.05586"
       sodipodi:cy="83.959793"
       sodipodi:rx="33.335033"
       sodipodi:ry="33.840111"
       d="m 138.3909,83.959793 c 0,18.689377 -14.92461,33.840107 -33.33504,33.840107 -18.410428,0 -33.335031,-15.15073 -33.335031,-33.840107 0,-18.689377 14.924603,-33.840111 33.335031,-33.840111 18.41043,0 33.33504,15.150734 33.33504,33.840111 z" />
    <path
       transform="translate(464.42979,569.89724)"
       sodipodi:type="arc"
       style="fill:none;stroke:#000000;stroke-width:5.5;stroke-linejoin:round;stroke-miterlimit:4;stroke-opacity:1;stroke-dasharray:none;stroke-dashoffset:0"
       id="path3753-9-0-5"
       sodipodi:cx="105.05586"
       sodipodi:cy="83.959793"
       sodipodi:rx="33.335033"
       sodipodi:ry="33.840111"
       d="m 138.3909,83.959793 c 0,18.689377 -14.92461,33.840107 -33.33504,33.840107 -18.410428,0 -33.335031,-15.15073 -33.335031,-33.840107 0,-18.689377 14.924603,-33.840111 33.335031,-33.840111 18.41043,0 33.33504,15.150734 33.33504,33.840111 z" />
    <path
       sodipodi:type="arc"
       style="fill:none;stroke:#000000;stroke-width:5.5;stroke-linejoin:round;stroke-miterlimit:4;stroke-opacity:1;stroke-dasharray:none;stroke-dashoffset:0"
       id="path3753-5-8"
       sodipodi:cx="105.05586"
       sodipodi:cy="83.959793"
       sodipodi:rx="33.335033"
       sodipodi:ry="33.840111"
       d="m 138.3909,83.959793 c 0,18.689377 -14.92461,33.840107 -33.33504,33.840107 -18.410428,0 -33.335031,-15.15073 -33.335031,-33.840107 0,-18.689377 14.924603,-33.840111 33.335031,-33.840111 18.41043,0 33.33504,15.150734 33.33504,33.840111 z"
       transform="translate(698.78518,322.6624)" />
    <path
       transform="translate(696.76488,402.96953)"
       sodipodi:type="arc"
       style="fill:none;stroke:#000000;stroke-width:5.5;stroke-linejoin:round;stroke-miterlimit:4;stroke-opacity:1;stroke-dasharray:none;stroke-dashoffset:0"
       id="path3753-0-3-0"
       sodipodi:cx="105.05586"
       sodipodi:cy="83.959793"
       sodipodi:rx="33.335033"
       sodipodi:ry="33.840111"
       d="m 138.3909,83.959793 c 0,18.689377 -14.92461,33.840107 -33.33504,33.840107 -18.410428,0 -33.335031,-15.15073 -33.335031,-33.840107 0,-18.689377 14.924603,-33.840111 33.335031,-33.840111 18.41043,0 33.33504,15.150734 33.33504,33.840111 z" />
    <path
       transform="translate(696.76488,487.82233)"
       sodipodi:type="arc"
       style="fill:none;stroke:#000000;stroke-width:5.5;stroke-linejoin:round;stroke-miterlimit:4;stroke-opacity:1;stroke-dasharray:none;stroke-dashoffset:0"
       id="path3753-9-5-9"
       sodipodi:cx="105.05586"
       sodipodi:cy="83.959793"
       sodipodi:rx="33.335033"
       sodipodi:ry="33.840111"
       d="m 138.3909,83.959793 c 0,18.689377 -14.92461,33.840107 -33.33504,33.840107 -18.410428,0 -33.335031,-15.15073 -33.335031,-33.840107 0,-18.689377 14.924603,-33.840111 33.335031,-33.840111 18.41043,0 33.33504,15.150734 33.33504,33.840111 z" />
    <path
       transform="translate(696.76488,570.65485)"
       sodipodi:type="arc"
       style="fill:none;stroke:#000000;stroke-width:5.5;stroke-linejoin:round;stroke-miterlimit:4;stroke-opacity:1;stroke-dasharray:none;stroke-dashoffset:0"
       id="path3753-9-0-41-1"
       sodipodi:cx="105.05586"
       sodipodi:cy="83.959793"
       sodipodi:rx="33.335033"
       sodipodi:ry="33.840111"
       d="m 138.3909,83.959793 c 0,18.689377 -14.92461,33.840107 -33.33504,33.840107 -18.410428,0 -33.335031,-15.15073 -33.335031,-33.840107 0,-18.689377 14.924603,-33.840111 33.335031,-33.840111 18.41043,0 33.33504,15.150734 33.33504,33.840111 z" />
    <path
       style="fill:none;stroke:#000000;stroke-width:4;stroke-linecap:butt;stroke-linejoin:miter;stroke-miterlimit:4;stroke-opacity:1;stroke-dasharray:none;marker-end:url(#Arrow1Send)"
       d="m 603.83084,406.36966 162.63456,-2.0203"
       id="path3853-20"
       inkscape:connector-curvature="0"
       sodipodi:nodetypes="cc" />
    <path
       style="fill:none;stroke:#000000;stroke-width:4;stroke-linecap:butt;stroke-linejoin:miter;stroke-miterlimit:4;stroke-opacity:1;stroke-dasharray:none;marker-end:url(#Arrow1Send)"
       d="m 602.83596,483.28669 163.64471,1.01016"
       id="path3853-9-5"
       inkscape:connector-curvature="0"
       sodipodi:nodetypes="cc" />
    <path
       style="fill:none;stroke:#000000;stroke-width:4;stroke-linecap:butt;stroke-linejoin:miter;stroke-miterlimit:4;stroke-opacity:1;stroke-dasharray:none;marker-end:url(#Arrow1Send)"
       d="m 604.85626,573.19027 161.6244,-1.01015"
       id="path3853-64-5"
       inkscape:connector-curvature="0"
       sodipodi:nodetypes="cc" />
    <path
       style="fill:none;stroke:#000000;stroke-width:4;stroke-linecap:butt;stroke-linejoin:miter;stroke-miterlimit:4;stroke-opacity:1;stroke-dasharray:none;marker-end:url(#Arrow1Send)"
       d="m 602.83596,655.01263 162.63455,2.02031"
       id="path3853-5-3"
       inkscape:connector-curvature="0"
       sodipodi:nodetypes="cc" />
    <text
       xml:space="preserve"
       style="font-size:48px;font-style:normal;font-weight:bold;line-height:125%;letter-spacing:0px;word-spacing:0px;fill:#000000;fill-opacity:1;stroke:none;font-family:Sans;-inkscape-font-specification:Sans Bold"
       x="496.75467"
       y="724.56769"
       id="text4719-5"
       sodipodi:linespacing="125%"><tspan
         sodipodi:role="line"
         id="tspan4721-6"
         x="496.75467"
         y="724.56769"
         style="font-size:24px">Population1</tspan></text>
    <text
       xml:space="preserve"
       style="font-size:48px;font-style:normal;font-weight:bold;line-height:125%;letter-spacing:0px;word-spacing:0px;fill:#000000;fill-opacity:1;stroke:none;font-family:Sans;-inkscape-font-specification:Sans Bold"
       x="699.89117"
       y="726.138"
       id="text4719-1-7"
       sodipodi:linespacing="125%"><tspan
         sodipodi:role="line"
         id="tspan4721-2-4"
         x="699.89117"
         y="726.138"
         style="font-size:24px">Population2</tspan></text>
    <text
       xml:space="preserve"
       style="font-size:48px;font-style:normal;font-weight:bold;line-height:125%;letter-spacing:0px;word-spacing:0px;fill:#000000;fill-opacity:1;stroke:none;font-family:Sans;-inkscape-font-specification:Sans Bold"
       x="613.01801"
       y="345.31055"
       id="text4719-9-5"
       sodipodi:linespacing="125%"><tspan
         sodipodi:role="line"
         id="tspan4721-8-4"
         x="613.01801"
         y="345.31055"
         style="font-size:24px">b) one2one</tspan></text>
    <text
       xml:space="preserve"
       style="font-size:48px;font-style:normal;font-weight:bold;line-height:125%;letter-spacing:0px;word-spacing:0px;fill:#000000;fill-opacity:1;stroke:none;font-family:Sans;-inkscape-font-specification:Sans Bold"
       x="98.994957"
       y="495.76813"
       id="text4995"
       sodipodi:linespacing="125%"><tspan
         sodipodi:role="line"
         id="tspan4997"
         x="98.994957"
         y="495.76813"
         style="font-size:24px">1</tspan></text>
    <text
       xml:space="preserve"
       style="font-size:48px;font-style:normal;font-weight:bold;line-height:125%;letter-spacing:0px;word-spacing:0px;fill:#000000;fill-opacity:1;stroke:none;font-family:Sans;-inkscape-font-specification:Sans Bold"
       x="100.21952"
       y="412.59229"
       id="text4995-2"
       sodipodi:linespacing="125%"><tspan
         sodipodi:role="line"
         id="tspan4997-7"
         x="100.21952"
         y="412.59229"
         style="font-size:24px">0</tspan></text>
    <text
       xml:space="preserve"
       style="font-size:48px;font-style:normal;font-weight:bold;line-height:125%;letter-spacing:0px;word-spacing:0px;fill:#000000;fill-opacity:1;stroke:none;font-family:Sans;-inkscape-font-specification:Sans Bold"
       x="98.199219"
       y="580.27765"
       id="text4995-6"
       sodipodi:linespacing="125%"><tspan
         sodipodi:role="line"
         id="tspan4997-4"
         x="98.199219"
         y="580.27765"
         style="font-size:24px">2</tspan></text>
    <text
       xml:space="preserve"
       style="font-size:48px;font-style:normal;font-weight:bold;line-height:125%;letter-spacing:0px;word-spacing:0px;fill:#000000;fill-opacity:1;stroke:none;font-family:Sans;-inkscape-font-specification:Sans Bold"
       x="97.189064"
       y="664.1203"
       id="text4995-7"
       sodipodi:linespacing="125%"><tspan
         sodipodi:role="line"
         id="tspan4997-3"
         x="97.189064"
         y="664.1203"
         style="font-size:24px">3</tspan></text>
    <text
       xml:space="preserve"
       style="font-size:48px;font-style:normal;font-weight:bold;line-height:125%;letter-spacing:0px;word-spacing:0px;fill:#000000;fill-opacity:1;stroke:none;font-family:Sans;-inkscape-font-specification:Sans Bold"
       x="330.53427"
       y="413.60242"
       id="text4995-68"
       sodipodi:linespacing="125%"><tspan
         sodipodi:role="line"
         id="tspan4997-1"
         x="330.53427"
         y="413.60242"
         style="font-size:24px">0</tspan></text>
    <text
       xml:space="preserve"
       style="font-size:48px;font-style:normal;font-weight:bold;line-height:125%;letter-spacing:0px;word-spacing:0px;fill:#000000;fill-opacity:1;stroke:none;font-family:Sans;-inkscape-font-specification:Sans Bold"
       x="329.52417"
       y="495.4248"
       id="text4995-0"
       sodipodi:linespacing="125%"><tspan
         sodipodi:role="line"
         id="tspan4997-46"
         x="329.52417"
         y="495.4248"
         style="font-size:24px">1</tspan></text>
    <text
       xml:space="preserve"
       style="font-size:48px;font-style:normal;font-weight:bold;line-height:125%;letter-spacing:0px;word-spacing:0px;fill:#000000;fill-opacity:1;stroke:none;font-family:Sans;-inkscape-font-specification:Sans Bold"
       x="331.54443"
       y="582.29797"
       id="text4995-5"
       sodipodi:linespacing="125%"><tspan
         sodipodi:role="line"
         id="tspan4997-6"
         x="331.54443"
         y="582.29797"
         style="font-size:24px">2</tspan></text>
    <text
       xml:space="preserve"
       style="font-size:48px;font-style:normal;font-weight:bold;line-height:125%;letter-spacing:0px;word-spacing:0px;fill:#000000;fill-opacity:1;stroke:none;font-family:Sans;-inkscape-font-specification:Sans Bold"
       x="329.52417"
       y="665.13043"
       id="text4995-20"
       sodipodi:linespacing="125%"><tspan
         sodipodi:role="line"
         id="tspan4997-12"
         x="329.52417"
         y="665.13043"
         style="font-size:24px">3</tspan></text>
    <text
       xml:space="preserve"
       style="font-size:48px;font-style:normal;font-weight:bold;line-height:125%;letter-spacing:0px;word-spacing:0px;fill:#000000;fill-opacity:1;stroke:none;font-family:Sans;-inkscape-font-specification:Sans Bold"
       x="562.62677"
       y="412.07547"
       id="text4995-68-5"
       sodipodi:linespacing="125%"><tspan
         sodipodi:role="line"
         id="tspan4997-1-0"
         x="562.62677"
         y="412.07547"
         style="font-size:24px">0</tspan></text>
    <text
       xml:space="preserve"
       style="font-size:48px;font-style:normal;font-weight:bold;line-height:125%;letter-spacing:0px;word-spacing:0px;fill:#000000;fill-opacity:1;stroke:none;font-family:Sans;-inkscape-font-specification:Sans Bold"
       x="561.61664"
       y="493.89786"
       id="text4995-0-9"
       sodipodi:linespacing="125%"><tspan
         sodipodi:role="line"
         id="tspan4997-46-6"
         x="561.61664"
         y="493.89786"
         style="font-size:24px">1</tspan></text>
    <text
       xml:space="preserve"
       style="font-size:48px;font-style:normal;font-weight:bold;line-height:125%;letter-spacing:0px;word-spacing:0px;fill:#000000;fill-opacity:1;stroke:none;font-family:Sans;-inkscape-font-specification:Sans Bold"
       x="563.6369"
       y="580.77106"
       id="text4995-5-8"
       sodipodi:linespacing="125%"><tspan
         sodipodi:role="line"
         id="tspan4997-6-8"
         x="563.6369"
         y="580.77106"
         style="font-size:24px">2</tspan></text>
    <text
       xml:space="preserve"
       style="font-size:48px;font-style:normal;font-weight:bold;line-height:125%;letter-spacing:0px;word-spacing:0px;fill:#000000;fill-opacity:1;stroke:none;font-family:Sans;-inkscape-font-specification:Sans Bold"
       x="561.61664"
       y="663.60352"
       id="text4995-20-6"
       sodipodi:linespacing="125%"><tspan
         sodipodi:role="line"
         id="tspan4997-12-6"
         x="561.61664"
         y="663.60352"
         style="font-size:24px">3</tspan></text>
    <text
       xml:space="preserve"
       style="font-size:48px;font-style:normal;font-weight:bold;line-height:125%;letter-spacing:0px;word-spacing:0px;fill:#000000;fill-opacity:1;stroke:none;font-family:Sans;-inkscape-font-specification:Sans Bold"
       x="794.96191"
       y="413.08563"
       id="text4995-68-7"
       sodipodi:linespacing="125%"><tspan
         sodipodi:role="line"
         id="tspan4997-1-1"
         x="794.96191"
         y="413.08563"
         style="font-size:24px">0</tspan></text>
    <text
       xml:space="preserve"
       style="font-size:48px;font-style:normal;font-weight:bold;line-height:125%;letter-spacing:0px;word-spacing:0px;fill:#000000;fill-opacity:1;stroke:none;font-family:Sans;-inkscape-font-specification:Sans Bold"
       x="793.95178"
       y="494.90802"
       id="text4995-0-7"
       sodipodi:linespacing="125%"><tspan
         sodipodi:role="line"
         id="tspan4997-46-9"
         x="793.95178"
         y="494.90802"
         style="font-size:24px">1</tspan></text>
    <text
       xml:space="preserve"
       style="font-size:48px;font-style:normal;font-weight:bold;line-height:125%;letter-spacing:0px;word-spacing:0px;fill:#000000;fill-opacity:1;stroke:none;font-family:Sans;-inkscape-font-specification:Sans Bold"
       x="795.97205"
       y="581.78119"
       id="text4995-5-2"
       sodipodi:linespacing="125%"><tspan
         sodipodi:role="line"
         id="tspan4997-6-0"
         x="795.97205"
         y="581.78119"
         style="font-size:24px">2</tspan></text>
    <text
       xml:space="preserve"
       style="font-size:48px;font-style:normal;font-weight:bold;line-height:125%;letter-spacing:0px;word-spacing:0px;fill:#000000;fill-opacity:1;stroke:none;font-family:Sans;-inkscape-font-specification:Sans Bold"
       x="793.95178"
       y="664.61365"
       id="text4995-20-0"
       sodipodi:linespacing="125%"><tspan
         sodipodi:role="line"
         id="tspan4997-12-9"
         x="793.95178"
         y="664.61365"
         style="font-size:24px">3</tspan></text>
  </g>
</svg>
